<svg width="440" height="956" viewBox="0 0 440 956" fill="none" xmlns="http://www.w3.org/2000/svg">
<g clip-path="url(#clip0_109_72)">
<rect width="440" height="956" fill="#FFF9E2"/>
<path d="M0.397995 699.994C223.586 871.177 225.593 531.3 441.759 676.108C657.925 820.916 614.518 1017 441.759 1017C269 1017 252.499 1095.17 0.397995 979C-251.703 862.825 -222.79 528.811 0.397995 699.994Z" fill="#FF9F36"/>
<path d="M-1.60201 769.795C221.586 940.978 223.593 601.1 439.759 745.909C655.925 890.717 612.518 1086.8 439.759 1086.8C267 1086.8 250.499 1164.98 -1.60201 1048.8C-253.703 932.626 -224.79 598.612 -1.60201 769.795Z" fill="#FFF9E2"/>
<path d="M0.397995 804.795C223.586 975.978 225.593 636.1 441.759 780.909C657.925 925.717 614.518 1121.8 441.759 1121.8C269 1121.8 252.499 1199.98 0.397995 1083.8C-251.703 967.626 -222.79 633.612 0.397995 804.795Z" fill="#23425C"/>
</g>
<defs>
<clipPath id="clip0_109_72">
<rect width="440" height="956" fill="white"/>
</clipPath>
</defs>
</svg>
